<svg width="1080" height="1080" viewBox="0 0 1080 1080" fill="none" xmlns="http://www.w3.org/2000/svg">
<rect width="1080" height="1080" rx="120" fill="#6D67E4"/>
<path d="M430.4 504.6H456.95C479.15 504.6 495.2 497.7 505.1 483.9L670.25 262.95C678.05 252.45 686.6 245.25 695.9 241.35C705.2 237.15 716.6 235.05 730.1 235.05H847.1L639.2 502.8C625.7 520.2 611.75 532.65 597.35 540.15C607.85 544.35 617.3 549.9 625.7 556.8C634.1 563.4 642.2 572.25 650 583.35L863.3 888H743.15C735.35 888 728.6 887.4 722.9 886.2C717.5 885 712.7 883.35 708.5 881.25C704.3 879.15 700.7 876.6 697.7 873.6C694.7 870.3 691.85 866.55 689.15 862.35L521.3 627.45C515.6 619.35 508.85 613.65 501.05 610.35C493.25 606.75 482.3 604.95 468.2 604.95H430.4V888H295.4V235.05H430.4V504.6Z" fill="white"/>
</svg>
